<svg width="512" height="512" viewBox="0 0 512 512" fill="none" xmlns="http://www.w3.org/2000/svg" aria-label="SAMRUQ mark">
  <rect width="512" height="512" fill="transparent"/>
  <g transform="translate(34 16)">
    <path d="M222 36C113 36 48 111 48 208C48 264 73 309 114 341C149 368 187 382 228 382C280 382 327 364 368 329C410 294 436 245 436 184C436 124 411 74 365 41C329 15 281 0 221 0H208V58H221C264 58 302 68 333 89C368 113 386 147 386 191C386 238 366 276 327 305C292 331 264 344 229 344C199 344 170 334 145 314C117 292 101 263 101 223C101 156 146 104 220 104C271 104 320 126 353 164L394 120C351 73 293 36 222 36Z" fill="#A48350"/>
    <path d="M318 0H222C320 0 399 55 434 139C448 172 455 207 455 245C455 297 440 342 411 381C386 414 352 439 311 455L284 408C321 395 349 376 370 348C393 317 404 282 404 240C404 180 379 135 336 104C307 83 274 70 236 65C250 63 265 62 282 62C334 62 380 77 418 106L437 58C405 28 363 9 318 0Z" fill="#D7AE64"/>
    <path d="M101 220C107 295 143 352 204 386C215 392 227 398 240 402L217 448C189 438 164 423 142 404C99 368 71 318 64 258H101Z" fill="#A48350"/>
    <path d="M133 221C139 284 168 334 218 363C228 369 239 374 250 378L236 405C206 396 180 382 158 363C123 333 102 292 98 221H133Z" fill="#C39B58"/>
    <path d="M166 221C171 267 190 306 223 328C230 333 238 337 246 341L237 359C219 352 203 341 190 327C166 302 152 268 149 221H166Z" fill="#E2BA70"/>
    <path d="M201 221C204 246 213 269 226 285C232 292 238 298 245 302L242 315C225 311 212 301 201 287C190 272 183 251 182 221H201Z" fill="#A48350"/>
    <path d="M341 221C335 295 299 352 238 386C227 392 215 398 202 402L225 448C253 438 278 423 300 404C343 368 371 318 378 258H341Z" fill="#A48350"/>
    <path d="M309 221C303 284 274 334 224 363C214 369 203 374 192 378L206 405C236 396 262 382 284 363C319 333 340 292 344 221H309Z" fill="#D7AE64"/>
    <path d="M276 221C271 267 252 306 219 328C212 333 204 337 196 341L205 359C223 352 239 341 252 327C276 302 290 268 293 221H276Z" fill="#EAC36F"/>
    <path d="M241 221C238 246 229 269 216 285C210 292 204 298 197 302L200 315C217 311 230 301 241 287C252 272 259 251 260 221H241Z" fill="#A48350"/>
    <path d="M207 365C207 350 215 337 228 329C239 322 253 319 269 319C276 319 284 320 292 321L280 348C272 346 263 345 254 345C243 345 235 348 230 353C226 357 224 361 223 365H207Z" fill="#D7AE64"/>
    <path d="M215 378C215 365 221 355 232 348C242 342 254 339 267 339C274 339 281 340 288 341L281 354C274 352 267 351 260 351C251 351 244 353 240 357C236 360 234 364 233 368L215 378Z" fill="#B58C48"/>
    <path d="M235 389C235 381 240 374 247 370C255 366 264 364 275 364C280 364 285 365 290 366L285 377C280 376 275 375 270 375C263 375 258 376 254 379C251 381 249 384 248 388L235 389Z" fill="#E2BA70"/>
    <path d="M272 401C272 417 266 430 257 442C247 455 235 465 221 474L210 454C217 449 223 443 228 437C232 431 235 426 236 420H272Z" fill="#D7AE64"/>
    <path d="M232 423C227 431 221 438 214 443C208 447 201 451 194 454C192 442 193 430 196 419C199 408 205 399 214 392L232 423Z" fill="#A48350"/>
    <path d="M222 443C217 450 210 456 203 460C196 464 188 467 180 469C180 457 182 446 186 437C190 428 197 420 205 414L222 443Z" fill="#EAC36F"/>
  </g>
</svg>