<svg width="828" height="828" viewBox="0 0 828 828" fill="none" xmlns="http://www.w3.org/2000/svg" aria-label="SAMRUQ ERP Qurylys logo">
  <rect width="828" height="828" fill="#0E1628"/>
  <g transform="translate(30 22)">
    <path d="M369 58C235 58 139 146 139 258C139 345 177 405 246 453C285 481 331 498 381 503C441 509 498 495 551 462C614 423 652 366 652 289C652 203 611 137 542 94C495 65 439 50 370 50H347V108H370C430 108 479 120 516 144C562 174 586 220 586 281C586 347 557 395 503 430C463 456 420 469 373 469C328 469 287 457 248 431C198 398 171 353 171 289C171 207 233 144 334 144C398 144 454 165 500 207L536 163C481 112 417 83 369 58Z" fill="#A48350"/>
    <path d="M523 58H369C472 58 554 101 606 173C637 215 653 265 653 322C653 394 628 449 580 491C537 528 486 550 428 557L416 505C470 498 515 482 552 458C600 427 623 382 623 325C623 277 608 237 577 203C551 175 519 154 480 141C494 138 511 136 531 136C592 136 649 154 688 186L707 135C669 97 620 72 523 58Z" fill="#D7AE64"/>
    <path d="M179 318C189 412 234 482 308 530C317 536 326 542 336 547L314 588C241 556 186 505 159 433C145 395 138 358 138 318H179Z" fill="#A48350"/>
    <path d="M209 318C218 395 253 450 315 490C324 496 333 501 342 505L325 533C286 516 255 493 230 463C203 431 189 380 187 318H209Z" fill="#C39B58"/>
    <path d="M241 318C248 369 271 406 312 432C320 437 328 441 336 445L326 464C300 452 280 438 263 418C246 398 236 362 234 318H241Z" fill="#E2BA70"/>
    <path d="M274 318C279 349 292 373 313 389C319 394 326 398 332 401L328 415C309 408 294 397 283 382C274 370 269 347 267 318H274Z" fill="#A48350"/>
    <path d="M517 318C507 412 462 482 388 530C379 536 370 542 360 547L382 588C455 556 510 505 537 433C551 395 558 358 558 318H517Z" fill="#A48350"/>
    <path d="M487 318C478 395 443 450 381 490C372 496 363 501 354 505L371 533C410 516 441 493 466 463C493 431 507 380 509 318H487Z" fill="#D7AE64"/>
    <path d="M455 318C448 369 425 406 384 432C376 437 368 441 360 445L370 464C396 452 416 438 433 418C450 398 460 362 462 318H455Z" fill="#EAC36F"/>
    <path d="M422 318C417 349 404 373 383 389C377 394 370 398 364 401L368 415C387 408 402 397 413 382C422 370 427 347 429 318H422Z" fill="#A48350"/>
    <path d="M348 434C348 407 362 389 386 379C409 369 439 366 469 367C484 368 500 370 515 373L497 410C484 407 471 406 458 406C438 406 424 409 414 416C406 421 401 427 399 434H348Z" fill="#D7AE64"/>
    <path d="M358 448C358 425 370 410 390 402C410 394 434 392 458 392C470 392 483 393 495 395L486 415C473 413 461 412 449 412C433 412 422 415 414 420C409 424 405 430 404 436L358 448Z" fill="#B58C48"/>
    <path d="M381 459C381 446 388 436 400 430C412 424 427 422 443 422C451 422 459 423 468 424L463 434C455 432 447 431 439 431C428 431 421 433 416 437C412 440 409 444 408 449L381 459Z" fill="#E2BA70"/>
    <path d="M420 478C420 497 413 513 402 526C391 540 375 552 356 562L347 539C356 533 363 528 369 521C373 516 376 510 377 505H420Z" fill="#D7AE64"/>
    <path d="M372 506C365 516 356 525 347 531C338 537 328 541 318 544C316 531 317 519 320 508C323 497 329 488 338 481L372 506Z" fill="#A48350"/>
    <path d="M353 532C347 539 339 546 330 551C322 555 313 558 304 560C304 548 306 538 310 529C314 520 321 513 329 507L353 532Z" fill="#EAC36F"/>
    <text x="414" y="746" text-anchor="middle" fill="#A48350" font-family="Arial, Helvetica, sans-serif" font-size="122" font-weight="700" letter-spacing="3">SAMRUQ</text>
    <text x="414" y="802" text-anchor="middle" fill="#D7AE64" font-family="Arial, Helvetica, sans-serif" font-size="56" font-weight="400" letter-spacing="11">QURYLYS</text>
  </g>
</svg>